<mxfile host="app.diagrams.net" modified="2020-05-16T16:19:30.499Z" agent="5.0 (Windows NT 10.0; Win64; x64) AppleWebKit/537.36 (KHTML, like Gecko) Chrome/81.0.4044.138 Safari/537.36" etag="tBbYy7G_Al0Q46yRc0IS" version="13.1.1" type="github">
  <diagram id="C5RBs43oDa-KdzZeNtuy" name="Page-1">
    <mxGraphModel dx="1038" dy="556" grid="1" gridSize="10" guides="1" tooltips="1" connect="1" arrows="1" fold="1" page="1" pageScale="1" pageWidth="827" pageHeight="1169" math="0" shadow="0">
      <root>
        <mxCell id="WIyWlLk6GJQsqaUBKTNV-0" />
        <mxCell id="WIyWlLk6GJQsqaUBKTNV-1" parent="WIyWlLk6GJQsqaUBKTNV-0" />
        <mxCell id="TLlFKKRgUXoDEwbIh3nz-0" value="System&lt;br&gt;70" style="ellipse;whiteSpace=wrap;html=1;" vertex="1" parent="WIyWlLk6GJQsqaUBKTNV-1">
          <mxGeometry x="580" y="90" width="140" height="70" as="geometry" />
        </mxCell>
        <mxCell id="TLlFKKRgUXoDEwbIh3nz-1" value="father&lt;br&gt;102" style="ellipse;whiteSpace=wrap;html=1;" vertex="1" parent="WIyWlLk6GJQsqaUBKTNV-1">
          <mxGeometry x="274" y="210" width="140" height="70" as="geometry" />
        </mxCell>
        <mxCell id="TLlFKKRgUXoDEwbIh3nz-2" value="first&lt;br&gt;132" style="ellipse;whiteSpace=wrap;html=1;" vertex="1" parent="WIyWlLk6GJQsqaUBKTNV-1">
          <mxGeometry x="190" y="90" width="140" height="70" as="geometry" />
        </mxCell>
        <mxCell id="TLlFKKRgUXoDEwbIh3nz-3" value="second&lt;br&gt;86" style="ellipse;whiteSpace=wrap;html=1;" vertex="1" parent="WIyWlLk6GJQsqaUBKTNV-1">
          <mxGeometry x="70" y="210" width="140" height="70" as="geometry" />
        </mxCell>
        <mxCell id="TLlFKKRgUXoDEwbIh3nz-4" value="third&lt;br&gt;70" style="ellipse;whiteSpace=wrap;html=1;" vertex="1" parent="WIyWlLk6GJQsqaUBKTNV-1">
          <mxGeometry x="70" y="340" width="140" height="70" as="geometry" />
        </mxCell>
        <mxCell id="TLlFKKRgUXoDEwbIh3nz-5" value="sister&lt;br&gt;70" style="ellipse;whiteSpace=wrap;html=1;" vertex="1" parent="WIyWlLk6GJQsqaUBKTNV-1">
          <mxGeometry x="280" y="340" width="140" height="70" as="geometry" />
        </mxCell>
        <mxCell id="TLlFKKRgUXoDEwbIh3nz-6" value="child&lt;br&gt;70" style="ellipse;whiteSpace=wrap;html=1;" vertex="1" parent="WIyWlLk6GJQsqaUBKTNV-1">
          <mxGeometry x="450" y="340" width="140" height="70" as="geometry" />
        </mxCell>
      </root>
    </mxGraphModel>
  </diagram>
</mxfile>
